<svg id="Layer_2" xmlns="http://www.w3.org/2000/svg" viewBox="0 0 950.77 737.09">
<defs>
<style>.cls-1{fill:#231f20;}</style>
</defs>
<path class="cls-1" 
    d="M0,0H950.77V181.1h-107.76s-13.07-1.61-18.95,3.62-7.84,29.4-7.84,35.93-.65,491.3-.65,491.3h-206.45l-4.44-502.37s0-27.63-8.79-40.18c-8.79-12.56-55.25-8.16-55.25-8.16l-79.11,1.26s-42.7,2.51-42.07,47.72,39.56,45.84,39.56,45.84l94.69,.63v160.74l-65.8,.63s-17.58-1.88-29.51,5.65c-11.93,7.53-21.35,24.49-33.28,60.9-11.93,36.42-74.72,227.36-74.72,227.36H140.89l126.7-263.44s29.24-54.15,75.81-83.39c-29.24-24.91-53.84-49.87-68.23-77.97-19.66-38.4-20.58-90.97-20.58-101.8s.54-17.29-3.23-20.52-69.44,2.69-69.44,2.69l-91.02,5.39L0,0Z"
    />
    </svg>